<svg xmlns="http://www.w3.org/2000/svg" xmlns:xlink="http://www.w3.org/1999/xlink" aria-hidden="true" role="img" class="iconify iconify--ph" width="32" height="32" preserveAspectRatio="xMidYMid meet" viewBox="0 0 256 256"><path fill="currentColor" d="M200.1 226h-54.8a263.3 263.3 0 0 0 27.3-27.1c27.2-31.2 41.5-64 41.5-94.9a86 86 0 0 0-172 0c0 30.9 14.4 63.7 41.5 94.9a263.3 263.3 0 0 0 27.3 27.1H56.1a6 6 0 0 0 0 12h144a6 6 0 1 0 0-12Zm-146-122a74 74 0 0 1 148 0c0 59.6-59 108.9-74 120.5c-15-11.6-74-60.9-74-120.5Zm112 0a38 38 0 1 0-38 38a38 38 0 0 0 38-38Zm-64 0a26 26 0 1 1 26 26a26.1 26.1 0 0 1-26-26Z"></path></svg>