<svg xmlns="http://www.w3.org/2000/svg" xmlns:xlink="http://www.w3.org/1999/xlink" aria-hidden="true" role="img" class="iconify iconify--ph" width="32" height="32" preserveAspectRatio="xMidYMid meet" viewBox="0 0 256 256"><path fill="currentColor" d="M247.4 68.9A8 8 0 0 0 240 64h-30.4a47.8 47.8 0 0 0-75.2-10.1A47.7 47.7 0 0 0 120 88v6.1C79.3 83.5 46 50.7 45.7 50.3a8 8 0 0 0-8.1-1.9a8.1 8.1 0 0 0-5.5 6.2c-8.7 48.2 5.8 80.5 19.5 99.1a108.6 108.6 0 0 0 24.7 24.4c-15.3 17.3-38.9 26.3-39.1 26.4a8 8 0 0 0-3.9 11.9c.8 1.2 3.8 5.1 11.1 8.8c9.1 4.5 21.1 6.8 35.6 6.8c70.5 0 129.5-54.3 135.5-124.2l30.2-30.1a8.4 8.4 0 0 0 1.7-8.8Zm-45.3 29.7a7.8 7.8 0 0 0-2.3 5.2C195.7 166.7 143.1 216 80 216c-10.6 0-18-1.4-23.2-3.1c11.5-6.2 27.5-17 37.9-32.5a8 8 0 0 0 1-6.4a8.1 8.1 0 0 0-4.1-5.1c-.1-.1-14.9-7.8-27.6-25.3c-14.4-19.8-20.5-43.9-18.1-71.7c15.8 13 46 34.2 80.8 40a8.1 8.1 0 0 0 6.5-1.8a8.2 8.2 0 0 0 2.8-6.1V88a32 32 0 0 1 61.3-12.8a8.1 8.1 0 0 0 7.4 4.8h16Z"></path></svg>